<svg xmlns="http://www.w3.org/2000/svg" xmlns:xlink="http://www.w3.org/1999/xlink" version="1.1" width="256" height="256" viewBox="0 0 256 256" xml:space="preserve">
<g style="stroke: none; stroke-width: 0; stroke-dasharray: none; stroke-linecap: butt; stroke-linejoin: miter; stroke-miterlimit: 10; fill: none; fill-rule: nonzero; opacity: 1;" transform="translate(1.4065934065934016 1.4065934065934016) scale(2.81 2.81)">
	<path d="M 45 0 C 20.187 0 0 20.187 0 45 c 0 24.813 20.187 45 45 45 c 24.813 0 45 -20.187 45 -45 C 90 20.187 69.813 0 45 0 z M 61.667 27.816 v 35.365 c 0 0.765 -0.52 1.431 -1.262 1.617 l -2.335 0.584 c -1.84 0.46 -3.771 -0.286 -4.824 -1.865 L 35 36.15 v 25 h 3.333 c 0 0 0 3.333 -3.333 3.333 H 25 c 0 -3.333 3.333 -3.333 3.333 -3.333 V 27.816 H 25 c 0 0 0 -3.333 3.333 -3.333 h 9.143 c 0.538 0 1.043 0.26 1.356 0.698 L 55 47.816 v -20 h -3.333 c 0 0 0 -3.333 3.333 -3.333 h 10 C 65 27.816 61.667 27.816 61.667 27.816 z" style="stroke: none; stroke-width: 1; stroke-dasharray: none; stroke-linecap: butt; stroke-linejoin: miter; stroke-miterlimit: 10; fill: rgb(176,184,193); fill-rule: nonzero; opacity: 1;" transform=" matrix(1 0 0 1 0 0) " stroke-linecap="round"/>
</g>
</svg>