<!DOCTYPE svg PUBLIC "-//W3C//DTD SVG 1.1//EN" "http://www.w3.org/Graphics/SVG/1.1/DTD/svg11.dtd">
<!-- Uploaded to: SVG Repo, www.svgrepo.com, Transformed by: SVG Repo Mixer Tools -->
<svg fill="#B0B8C1" width="800px" height="800px" viewBox="0 0 24 24" xmlns="http://www.w3.org/2000/svg">
<g id="SVGRepo_bgCarrier" stroke-width="0"/>
<g id="SVGRepo_tracerCarrier" stroke-linecap="round" stroke-linejoin="round"/>
<g id="SVGRepo_iconCarrier">
<path d="M21,6a1.009,1.009,0,0,0-.294-.708l-4-4a1,1,0,0,0-.323-.216A.988.988,0,0,0,16,1H4A1,1,0,0,0,3,2V22a1,1,0,0,0,1,1H20a1,1,0,0,0,1-1ZM19,21H5V3H15V6a1,1,0,0,0,1,1h3ZM16,9a1,1,0,0,1,0,2H8A1,1,0,0,1,8,9ZM7,6A1,1,0,0,1,8,5h4a1,1,0,0,1,0,2H8A1,1,0,0,1,7,6Zm10,8a1,1,0,0,1-1,1H8a1,1,0,0,1,0-2h8A1,1,0,0,1,17,14Zm0,4a1,1,0,0,1-1,1H8a1,1,0,0,1,0-2h8A1,1,0,0,1,17,18Z"/>
</g>
</svg>